<svg xmlns="http://www.w3.org/2000/svg" xmlns:xlink="http://www.w3.org/1999/xlink" version="1.1" id="Livello_1" x="0px" y="0px" style="enable-background:new 0 0 595.28 841.89;" xml:space="preserve" viewBox="241.01 400.89 114.18 40.91">
<rect x="241.01" y="400.89" width="27.87" height="9.29" fill="#ffffff"/>
<rect x="259.59" y="413.92" width="9.29" height="27.87" fill="#ffffff"/>
<rect x="272.63" y="400.89" width="27.87" height="9.29" fill="#ffffff"/>
<polygon points="300.5,432.5 300.5,441.8 272.63,441.8 272.63,413.92 281.92,413.92 281.92,432.5 " fill="#ffffff"/>
<path d="M306.28,432.5h7.4v1.55h-2.77v7.74h-1.87v-7.74h-2.77V432.5z" fill="#ffffff"/>
<path d="M311.56,438.33c0-1.93,1.32-3.44,3.25-3.44c2.12,0,3.26,1.6,3.26,3.93h-4.79c0.13,1.01,0.69,1.63,1.68,1.63  c0.68,0,1.08-0.31,1.27-0.8h1.72c-0.24,1.16-1.29,2.14-2.98,2.14C312.79,441.8,311.56,440.28,311.56,438.33z M313.31,437.63h2.93  c-0.05-0.83-0.6-1.4-1.4-1.4C313.91,436.23,313.46,436.78,313.31,437.63z" fill="#ffffff"/>
<path d="M318.44,438.35c0-1.95,1.29-3.45,3.29-3.45c1.71,0,2.77,0.98,3,2.39h-1.71c-0.12-0.57-0.57-1.01-1.21-1.01  c-1.06,0-1.6,0.8-1.6,2.06c0,1.23,0.5,2.06,1.57,2.06c0.71,0,1.21-0.37,1.32-1.11h1.69c-0.12,1.39-1.21,2.49-2.97,2.49  C319.74,441.8,318.44,440.29,318.44,438.35z" fill="#ffffff"/>
<path d="M327.18,435.93h0.04c0.48-0.69,1.02-1.03,1.92-1.03c1.36,0,2.28,1.02,2.28,2.44v4.45h-1.75v-4.2c0-0.7-0.41-1.2-1.14-1.2  c-0.77,0-1.34,0.61-1.34,1.5v3.9h-1.75v-9.29h1.75V435.93z" fill="#ffffff"/>
<path d="M332.06,438.35c0-1.95,1.29-3.45,3.29-3.45c1.71,0,2.77,0.98,3,2.39h-1.71c-0.12-0.57-0.57-1.01-1.21-1.01  c-1.06,0-1.6,0.8-1.6,2.06c0,1.23,0.5,2.06,1.57,2.06c0.71,0,1.21-0.37,1.32-1.11h1.69c-0.12,1.39-1.21,2.49-2.97,2.49  C333.35,441.8,332.06,440.29,332.06,438.35z" fill="#ffffff"/>
<path d="M339.08,432.5h1.75v9.29h-1.75V432.5z" fill="#ffffff"/>
<path d="M346.04,441.8v-0.95H346c-0.45,0.6-0.96,0.94-1.89,0.94c-1.47,0-2.29-0.93-2.29-2.35v-4.35h1.74v4.06  c0,0.76,0.35,1.18,1.09,1.18c0.82,0,1.33-0.61,1.33-1.48v-3.77h1.75v6.72H346.04z" fill="#ffffff"/>
<path d="M350.44,440.79h-0.03v1.01h-1.69v-9.29h1.75v3.36h0.04c0.36-0.55,0.93-0.97,1.84-0.97c1.66,0,2.84,1.41,2.84,3.45  c0,2.11-1.13,3.45-2.79,3.45C351.49,441.8,350.83,441.4,350.44,440.79z M353.43,438.35c0-1.21-0.49-2.05-1.47-2.05  c-1.11,0-1.52,0.88-1.52,2.09c0,1.2,0.6,1.96,1.58,1.96C352.93,440.34,353.43,439.61,353.43,438.35z" fill="#ffffff"/>
</svg>